<svg width="884" height="209" viewBox="0 0 884 209" fill="none" xmlns="http://www.w3.org/2000/svg">
<rect width="884" height="209" fill="#4099FF"/>
<g clip-path="url(#clip0_107_219)">
<path d="M11.875 121.917L19.8313 194.077C20.3063 198.035 23.6313 201.083 27.7083 201.083H67.2917C71.3688 201.083 74.6937 198.035 75.1687 194.077L83.125 121.917H11.875ZM47.5 189.208C40.9292 189.208 35.625 183.904 35.625 177.333C35.625 169.417 47.5 155.958 47.5 155.958C47.5 155.958 59.375 169.417 59.375 177.333C59.375 183.904 54.0708 189.208 47.5 189.208ZM72.5563 145.667H22.4438L20.7021 129.833H74.2583L72.5563 145.667Z" fill="white" fill-opacity="0.4"/>
</g>
<defs>
<clipPath id="clip0_107_219">
<rect width="95" height="95" fill="white" transform="translate(0 114)"/>
</clipPath>
</defs>
</svg>
